PathFileType	4	(x/y/z)	A01_SLOW_T0029.trc
DataRate	CameraRate	NumFrames	NumMarkers	Units	OrigDataRate	OrigDataStartFrame	OrigNumFrames
240	240	8	48	mm	240	224	357
Frame#	Time	TOP_HEAD			R_AC			L_AC			R_ASIS			L_ASIS			R_PSIS			L_PSIS			SACRAL			L_IC			R_IC			L_GT			R_GT			R_LAT_KNEE			R_MED_KNEE			L_MED_KNEE			L_LAT_KNEE			R_TOE			L_TOE			R_1ST_MET			L_1ST_MET			L_5TH_MET			R_5TH_MET			R_LAT_ANK			R_MED_ANK			L_MED_ANK			L_LAT_ANK			L_HEEL_SUP			R_HEEL_SUP			L_HEEL_LAT			R_HEEL_LAT			L_HEEL_MED			R_HEEL_MED			R_LL_PROX_POST			R_LL_PROX_ANT			R_LL_DIST_ANT			R_LL_DIST_POST			R_THIGH_PROX_POST			R_THIGH_PROX_ANT			R_THIGH_DIST_ANT			R_THIGH_DIST_POST			L_PROS_PROX_ANT			L_PROS_PROX_POST			L_PROS_DIST_POST			L_PROS_DIST_ANT			L_THIGH_PROX_ANT			L_THIGH_PROX_POST			L_THIGH_DIST_POST			L_THIGH_DIST_ANT			
		X1	Y1	Z1	X2	Y2	Z2	X3	Y3	Z3	X4	Y4	Z4	X5	Y5	Z5	X6	Y6	Z6	X7	Y7	Z7	X8	Y8	Z8	X9	Y9	Z9	X10	Y10	Z10	X11	Y11	Z11	X12	Y12	Z12	X13	Y13	Z13	X14	Y14	Z14	X15	Y15	Z15	X16	Y16	Z16	X17	Y17	Z17	X18	Y18	Z18	X19	Y19	Z19	X20	Y20	Z20	X21	Y21	Z21	X22	Y22	Z22	X23	Y23	Z23	X24	Y24	Z24	X25	Y25	Z25	X26	Y26	Z26	X27	Y27	Z27	X28	Y28	Z28	X29	Y29	Z29	X30	Y30	Z30	X31	Y31	Z31	X32	Y32	Z32	X33	Y33	Z33	X34	Y34	Z34	X35	Y35	Z35	X36	Y36	Z36	X37	Y37	Z37	X38	Y38	Z38	X39	Y39	Z39	X40	Y40	Z40	X41	Y41	Z41	X42	Y42	Z42	X43	Y43	Z43	X44	Y44	Z44	X45	Y45	Z45	X46	Y46	Z46	X47	Y47	Z47	X48	Y48	Z48	

224	0.93178	341.49	1727.4	340.31	105.84	1513.2	577.97	90.741	1536	117.43	114.66	1077.9	538.35	91.502	997.49	189.61	-112.58	1064.1	430.64	-108.44	1064.8	297.14	-127.9	1035.2	364.4	70.417	1129.1	150.27	80.056	1159.4	554.75	17.963	920.27	153.95	67.592	963.62	584.32	173.5	567.9	509.82	194.13	576.06	378.73	4.4012	506.41	355.85	-24.012	534.6	203.24	437.86	81.743	392.51	-266.73	61.317	266.45	353.65	58.543	350.83	-334.58	97.258	331.04	-373.17	120.45	209.29	334.92	46.369	486.02	212.99	102.81	469.6	208.67	112.01	367.67	-355.58	247.54	324.99	-389.86	267.08	262.37	-478.78	290.72	316.14	110.38	65.359	416.12	-499.35	268.93	285.27	122.6	41.674	449.54	-486.67	256.67	347.29	122.17	39.715	390.12	109.37	379.36	514.04	180.99	379.5	527.79	193.01	307.05	507.93	137.22	301.82	500.46	67.234	811.58	561.49	130.05	848.41	567.87	157.23	762.06	554.06	97.753	728.01	545.85	-52.489	445.1	214.5	-90.945	485.15	209.62	-140.32	447.27	222.39	-98.274	412.73	224.94	61.536	771.69	187.72	-7.3479	785.51	173.15	-4.951	709.52	183.34	57.758	698.06	196.31
225	0.93596	346.18	1728.1	341.28	111.29	1513.8	578.42	95.083	1536.8	117.96	119.39	1078.2	539.26	96.7	998.32	190.38	-107.7	1064.3	431.16	-103.52	1065	297.66	-122.89	1035.4	364.89	75.264	1129.9	150.79	85.033	1159.9	555.55	23.616	920.87	154.45	72.215	963.74	584.89	177.03	567.91	509.95	197.86	576.19	378.83	14.134	505.77	355.08	-15.341	535.34	202.94	438.12	81.019	392.39	-262.23	62.728	264.69	353.82	58.252	350.65	-329.08	99.515	330.09	-368.34	124.28	208.96	335	46.292	486.05	213.3	102.89	469.33	209.01	111.91	367.41	-348.44	250.28	325.36	-383.07	270.55	263.15	-470.58	295.39	318.03	110.58	65.576	416.08	-491.75	274.11	287.14	122.71	41.907	449.54	-478.73	261.23	348.96	122.3	39.912	390.1	111.64	379.84	513.82	183.26	379.5	527.61	194.81	307	507.7	139.02	302.13	500.18	71.375	811.82	561.74	134.34	848.39	568.42	161.22	761.94	554.56	101.6	728.14	546.09	-44.513	446.01	213.8	-82.641	486.4	209.52	-132.25	448.85	222.42	-90.499	413.95	224.36	68.286	772.48	187.7	-0.72164	785.79	173.2	2.3154	709.8	183.18	65.109	698.8	196.09
226	0.94013	350.84	1728.8	342.21	116.7	1514.5	578.85	99.357	1537.6	118.47	124.13	1078.4	540.15	101.87	999.17	191.11	-102.83	1064.6	431.71	-98.628	1065.2	298.2	-117.9	1035.5	365.41	80.056	1130.7	151.31	90.033	1160.3	556.38	29.222	921.51	154.92	76.851	963.86	585.43	180.52	567.91	510.05	201.49	576.3	378.9	23.873	505.21	354.27	-6.7001	536.2	202.66	438.36	80.339	392.27	-257.4	64.302	262.75	353.99	57.997	350.48	-323.23	101.75	329.02	-363.21	128.09	208.55	335.08	46.242	486.06	213.6	102.98	469.05	209.33	111.82	367.13	-341.12	252.9	325.68	-376.11	273.92	263.91	-462.23	299.79	319.94	110.77	65.791	416.03	-483.98	279.02	289.04	122.8	42.142	449.53	-470.59	265.49	350.62	122.42	40.107	390.08	113.85	380.32	513.57	185.48	379.5	527.42	196.56	306.95	507.46	140.79	302.44	499.87	75.507	812.06	561.98	138.61	848.37	568.93	165.2	761.83	555.02	105.42	728.28	546.31	-36.515	447.03	213.08	-74.33	487.75	209.41	-124.15	450.5	222.46	-82.676	415.25	223.76	75	773.33	187.66	5.8738	786.12	173.24	9.5487	710.14	183.01	72.427	699.61	195.84
227	0.94431	355.47	1729.6	343.12	122.08	1515.3	579.27	103.56	1538.4	118.95	128.87	1078.6	541.02	107	1000.1	191.82	-97.971	1064.8	432.27	-93.772	1065.3	298.77	-112.93	1035.7	365.95	84.791	1131.4	151.84	95.056	1160.8	557.24	34.778	922.2	155.36	81.498	963.97	585.96	183.96	567.9	510.14	205.05	576.38	378.96	33.615	504.73	353.44	1.9121	537.19	202.37	438.61	79.694	392.15	-252.21	66.021	260.66	354.15	57.773	350.3	-317.04	103.94	327.82	-357.81	131.86	208.05	335.15	46.214	486.07	213.9	103.08	468.78	209.63	111.74	366.86	-333.6	255.39	325.96	-368.97	277.16	264.65	-453.77	303.91	321.85	110.96	66.007	415.98	-476.06	283.62	290.94	122.88	42.38	449.54	-462.27	269.46	352.28	122.54	40.303	390.05	116.01	380.79	513.32	187.65	379.5	527.22	198.27	306.91	507.2	142.51	302.74	499.55	79.63	812.3	562.21	142.87	848.36	569.4	169.15	761.72	555.43	109.21	728.41	546.51	-28.492	448.16	212.33	-66.009	489.19	209.31	-116.01	452.19	222.5	-74.803	416.63	223.14	81.683	774.24	187.6	12.442	786.52	173.26	16.752	710.55	182.83	79.715	700.48	195.58
228	0.94849	360.07	1730.3	344	127.42	1516	579.67	107.71	1539.1	119.41	133.63	1078.9	541.86	112.1	1001	192.49	-93.131	1065.1	432.86	-88.948	1065.5	299.36	-107.98	1035.9	366.52	89.47	1132.1	152.37	100.1	1161.3	558.11	40.283	922.94	155.78	86.154	964.1	586.46	187.35	567.89	510.21	208.55	576.45	379.01	43.353	504.32	352.58	10.499	538.3	202.09	438.85	79.079	392.04	-246.69	67.86	258.42	354.3	57.575	350.13	-310.51	106.08	326.52	-352.12	135.56	207.46	335.21	46.201	486.07	214.2	103.18	468.5	209.92	111.67	366.58	-325.9	257.75	326.19	-361.66	280.26	265.37	-445.2	307.72	323.74	111.14	66.225	415.93	-468.01	287.9	292.83	122.95	42.621	449.55	-453.8	273.1	353.9	122.66	40.5	390.02	118.14	381.25	513.07	189.79	379.51	527.01	199.95	306.86	506.94	144.21	303.04	499.22	83.746	812.56	562.43	147.11	848.36	569.82	173.09	761.63	555.81	112.99	728.56	546.7	-20.441	449.39	211.57	-57.678	490.69	209.2	-107.82	453.92	222.53	-66.877	418.08	222.49	88.338	775.21	187.52	18.987	786.97	173.28	23.928	711.02	182.64	86.976	701.42	195.3
229	0.95267	364.64	1731.1	344.85	132.71	1516.7	580.06	111.79	1539.8	119.84	138.4	1079.1	542.66	117.16	1001.9	193.12	-88.308	1065.5	433.46	-84.153	1065.7	299.96	-103.06	1036.1	367.11	94.093	1132.8	152.9	105.16	1161.7	558.98	45.736	923.72	156.17	90.816	964.23	586.94	190.7	567.87	510.27	212	576.49	379.06	53.081	503.99	351.69	19.063	539.5	201.8	439.1	78.49	391.93	-240.83	69.793	256.05	354.46	57.399	349.96	-303.64	108.14	325.11	-346.16	139.15	206.8	335.26	46.199	486.07	214.5	103.3	468.24	210.2	111.62	366.3	-318.02	259.97	326.37	-354.18	283.22	266.06	-436.53	311.21	325.6	111.33	66.446	415.89	-459.84	291.85	294.7	123.01	42.865	449.57	-445.18	276.41	355.49	122.77	40.701	390	120.23	381.72	512.84	191.89	379.52	526.8	201.61	306.83	506.69	145.89	303.35	498.91	87.855	812.83	562.64	151.34	848.37	570.21	177.01	761.55	556.15	116.75	728.72	546.88	-12.357	450.7	210.79	-49.334	492.26	209.1	-99.596	455.68	222.54	-58.895	419.58	221.82	94.969	776.23	187.44	25.513	787.49	173.29	31.082	711.57	182.45	94.214	702.41	195.01
230	0.95685	369.19	1731.8	345.67	137.97	1517.4	580.43	115.82	1540.5	120.25	143.18	1079.3	543.43	122.17	1002.9	193.72	-83.501	1065.8	434.08	-79.386	1065.9	300.59	-98.163	1036.3	367.72	98.66	1133.4	153.44	110.24	1162.3	559.85	51.136	924.55	156.54	95.481	964.39	587.39	194	567.86	510.32	215.41	576.51	379.11	62.795	503.73	350.78	27.608	540.8	201.52	439.35	77.923	391.82	-234.64	71.79	253.57	354.61	57.243	349.81	-296.47	110.11	323.61	-339.92	142.63	206.07	335.31	46.205	486.06	214.81	103.41	467.98	210.46	111.58	366.04	-309.96	262.04	326.48	-346.53	286.02	266.71	-427.78	314.37	327.41	111.51	66.673	415.85	-451.55	295.45	296.52	123.06	43.113	449.59	-436.42	279.39	357.03	122.89	40.906	389.97	122.3	382.18	512.64	193.98	379.53	526.6	203.26	306.8	506.43	147.55	303.66	498.62	91.956	813.11	562.85	155.56	848.4	570.57	180.91	761.49	556.46	120.49	728.89	547.05	-4.238	452.09	209.99	-40.974	493.88	208.98	-91.325	457.46	222.54	-50.856	421.13	221.12	101.58	777.3	187.35	32.025	788.06	173.3	38.216	712.17	182.25	101.43	703.47	194.72
231	0.96103	373.72	1732.6	346.45	143.17	1518.2	580.8	119.8	1541.2	120.63	147.98	1079.5	544.16	127.14	1003.9	194.27	-78.711	1066.2	434.71	-74.644	1066.1	301.22	-93.294	1036.5	368.34	103.17	1134	153.99	115.32	1162.8	560.69	56.484	925.42	156.89	100.15	964.56	587.82	197.26	567.84	510.37	218.79	576.52	379.17	72.488	503.55	349.85	36.138	542.18	201.23	439.6	77.377	391.72	-228.12	73.823	251.01	354.77	57.103	349.66	-288.99	111.98	322.02	-333.42	145.97	205.27	335.36	46.215	486.05	215.11	103.54	467.74	210.72	111.55	365.78	-301.73	263.95	326.54	-338.71	288.64	267.31	-418.94	317.21	329.16	111.7	66.906	415.82	-443.15	298.71	298.29	123.1	43.363	449.62	-427.55	282.03	358.49	123	41.117	389.95	124.35	382.64	512.47	196.06	379.56	526.4	204.9	306.79	506.19	149.2	303.97	498.35	96.049	813.41	563.05	159.76	848.45	570.89	184.8	761.45	556.74	124.22	729.08	547.22	3.9202	453.54	209.17	-32.597	495.54	208.86	-83.008	459.24	222.53	-42.757	422.72	220.41	108.17	778.43	187.26	38.525	788.68	173.3	45.336	712.82	182.07	108.64	704.58	194.43
